<svg xmlns="http://www.w3.org/2000/svg" viewBox="0 0 311.98 102.14"><defs><style>.cls-1{fill:#242943;}.cls-2{fill:#51adca;}</style></defs><title>Artboard 1aa</title><g id="sze"><path id="sze_logo_242943" data-name="sze logo #242943" class="cls-1" d="M56.82,58c0-1,.12-1.3,1.28-1.37a28.09,28.09,0,0,0,21.18-11,27.68,27.68,0,0,0,6-16.27c.06-1.34,1.16-1.18,2-1.18,1.18,0,.94.71.91,1.38a31.46,31.46,0,0,1-24,29.1,33.42,33.42,0,0,1-5.9.84C56.83,59.65,56.81,59.61,56.82,58ZM82.39,29.59c.07-.73.13-1.34-1-1.35-.8,0-1.84-.25-1.87,1.16a18.35,18.35,0,0,1-1.46,6.93c-3.77,9-10.53,14-20.21,14.63-1.38.1-1.08,1.22-1,1.93,0,1,.52,1,1.22.93a33.48,33.48,0,0,0,3.47-.39,25.57,25.57,0,0,0,20.8-23.06C82.35,30.11,82.36,29.85,82.39,29.59Zm47.9,3.17a6.72,6.72,0,0,1,4.1,1.5l1.72-2.48a8.2,8.2,0,0,0-2.66-1.48,9.31,9.31,0,0,0-3-.52A6.29,6.29,0,0,0,126.51,31,4,4,0,0,0,125,34.3a3.9,3.9,0,0,0,1.23,3.18,9.84,9.84,0,0,0,3.89,1.64,7.51,7.51,0,0,1,2.25.82,1.26,1.26,0,0,1,.56,1.09,1.28,1.28,0,0,1-.53,1.09,2.4,2.4,0,0,1-1.47.4,7.2,7.2,0,0,1-4.56-2.15l-2,2.48a9.33,9.33,0,0,0,6.51,2.68,6.16,6.16,0,0,0,4.05-1.27,4.13,4.13,0,0,0,1.53-3.33,3.94,3.94,0,0,0-1.2-3.11,7.69,7.69,0,0,0-3.36-1.6,11.11,11.11,0,0,1-2.77-.93,1.2,1.2,0,0,1-.6-1.06,1.31,1.31,0,0,1,.49-1.07A2.1,2.1,0,0,1,130.29,32.76Zm20.88,12.6v-3h-8.09l8-9.91V30.12H138.68v2.95h7.72l-8,10v2.33Zm3-15.24V45.36h11.23v-3h-7.83V39.19h6.82v-2.9h-6.82V33.15h7.59v-3Zm9.77-4-3.38-1.41-2.77,3.85h3.12Zm8.37,15A4.58,4.58,0,0,1,171,37.65a4.34,4.34,0,0,1,1.36-3.37A4.66,4.66,0,0,1,175.62,33a4.94,4.94,0,0,1,4,2l2.12-2.4a8.06,8.06,0,0,0-6.28-2.85A7.82,7.82,0,0,0,169.79,32a7.58,7.58,0,0,0-2.32,5.66,7.5,7.5,0,0,0,2.28,5.61,8.23,8.23,0,0,0,11.91-.7l-2.18-2.24a5,5,0,0,1-4.1,2A4.21,4.21,0,0,1,172.27,41.06Zm21.53-4.57h-6.06V30.12h-3.4V45.36h3.4v-6h6.06v6h3.4V30.12h-3.4ZM201,30.12V45.36h11.22v-3h-7.82V39.19h6.82v-2.9h-6.82V33.15h7.58v-3Zm24.91,9.81-7.48-9.81H215.2V45.36h3.4V35.81l7.26,9.55h3.4V30.12h-3.4Zm13.7-.59,5.28-9.22h-3.69l-3.29,5.67-3.29-5.67h-3.68l5.27,9.22v6h3.4Zm6.91,6h3.4V30.12h-3.4ZM125.39,48.79V64h11.22V61h-7.82V57.85h6.82V55h-6.82V51.82h7.58v-3Zm24.38,11.66a5.81,5.81,0,0,1-2.94.67,4.14,4.14,0,0,1-3-1.29,4.73,4.73,0,0,1-1.27-3.46,4.63,4.63,0,0,1,1.33-3.47,4.44,4.44,0,0,1,3.27-1.32,5.2,5.2,0,0,1,1.86.33,6.79,6.79,0,0,1,1.88,1.24l1.77-2.55a8.27,8.27,0,0,0-5.7-2.16,7.72,7.72,0,0,0-5.6,2.26A7.59,7.59,0,0,0,139,56.36,7.5,7.5,0,0,0,141.29,62a7.73,7.73,0,0,0,5.63,2.22,8,8,0,0,0,6.28-2.52V56.26h-3.43Zm13-2.44L168,48.79h-3.69l-3.29,5.66-3.29-5.66h-3.68L159.36,58v6h3.4Zm7.15-9.22V64h11.23V61h-7.83V57.85h6.82V55h-6.82V51.82h7.59v-3Zm25.26,2.94V48.79h-12v2.94h4.32V64h3.4V51.73Zm2.72-2.94V64h11.23V61h-7.83V57.85h6.83V55h-6.83V51.82h7.59v-3ZM226,64h3.4V48.79h-4.58l-3.94,8.37L217,48.79h-4.6V64h3.4V54.43l4.09,8.33h2L226,54.43ZM125,73.71V70.05h-1.11v3.71a3,3,0,0,0,.78,2.2,3,3,0,0,0,4,0,2.92,2.92,0,0,0,.79-2.2V70.05h-1.12v3.66a2.14,2.14,0,0,1-.45,1.44,1.57,1.57,0,0,1-1.23.53,1.54,1.54,0,0,1-1.23-.53A2.09,2.09,0,0,1,125,73.71ZM136.22,75l-3.84-4.94h-1.12v6.62h1.12V71.84l3.74,4.83h1.22V70.05h-1.12Zm2.95,1.68h1.12V70.05h-1.12Zm8.63-6.62h-1.25l-2,4.94-2-4.94h-1.25l2.66,6.62h1.25Zm.95,0v6.62h4.76V75.61h-3.64V73.85H153v-1h-3.17V71.1h3.53v-1Zm10.82.51a3.59,3.59,0,0,0-2.17-.51h-2.46v6.62h1.12V74.44h1.46l1.58,2.23h1.42l-1.73-2.41a1.92,1.92,0,0,0,1.43-2.06A2,2,0,0,0,159.57,70.56Zm-2.12,2.87h-1.39V71.06h1.41a2.33,2.33,0,0,1,1.25.24,1,1,0,0,1,.35.89,1.18,1.18,0,0,1-.34,1A2.05,2.05,0,0,1,157.45,73.43Zm7.37-2.34a2.12,2.12,0,0,1,.79.44l.6-.85a3.28,3.28,0,0,0-1.08-.58,3.92,3.92,0,0,0-1.26-.21,2.65,2.65,0,0,0-1.65.5,1.67,1.67,0,0,0-.67,1.41,1.59,1.59,0,0,0,.59,1.36,2.62,2.62,0,0,0,.67.39,11.54,11.54,0,0,0,1.11.32,3,3,0,0,1,1,.39.67.67,0,0,1,.29.59.73.73,0,0,1-.31.62,1.46,1.46,0,0,1-.86.23,3.15,3.15,0,0,1-2.08-.87l-.7.84A4,4,0,0,0,164,76.74a2.62,2.62,0,0,0,1.72-.54,1.75,1.75,0,0,0,.65-1.4,1.61,1.61,0,0,0-.52-1.31,3.64,3.64,0,0,0-1.53-.7,4.73,4.73,0,0,1-1.33-.45.71.71,0,0,1-.31-.62.65.65,0,0,1,.31-.6,1.48,1.48,0,0,1,.8-.2A3.22,3.22,0,0,1,164.82,71.09Zm3,5.58h1.12V70.05h-1.12Zm7.46-5.6v-1h-5.13v1h2v5.6h1.11v-5.6Zm3.81,3,2.46-4H180.3l-1.81,3-1.8-3h-1.22l2.46,4v2.62h1.13Zm12.44-.74a3.3,3.3,0,0,0-1-2.44,3.63,3.63,0,0,0-5,0,3.45,3.45,0,0,0,0,4.88,3.63,3.63,0,0,0,5,0A3.29,3.29,0,0,0,191.5,73.31Zm-1.15,0a2.35,2.35,0,0,1-.67,1.7,2.33,2.33,0,0,1-3.33,0,2.49,2.49,0,0,1,0-3.4,2.33,2.33,0,0,1,3.33,0A2.35,2.35,0,0,1,190.35,73.31Zm7-2.22v-1h-4.41v6.62H194V73.94H197v-1H194V71.09Zm8.49,4.17a2.79,2.79,0,0,1-1.58.41,2.19,2.19,0,0,1-1.6-.64,2.48,2.48,0,0,1,0-3.39,2.3,2.3,0,0,1,1.68-.65,3.21,3.21,0,0,1,.92.12,2.45,2.45,0,0,1,.78.46l.59-.85a3.48,3.48,0,0,0-2.37-.83,3.37,3.37,0,0,0-2.44,1,3.51,3.51,0,0,0,0,4.91,3.39,3.39,0,0,0,2.46,1,3.44,3.44,0,0,0,2.68-1V73.45H205.8Zm5.08-1.21,2.46-4h-1.22l-1.81,3-1.8-3h-1.23l2.47,4v2.62h1.13Zm9.84-.74a3.27,3.27,0,0,0-1-2.44,3.63,3.63,0,0,0-5,0,3.48,3.48,0,0,0,0,4.88,3.63,3.63,0,0,0,5,0A3.25,3.25,0,0,0,220.72,73.31Zm-1.14,0a2.36,2.36,0,0,1-.68,1.7,2.32,2.32,0,0,1-3.32,0,2.46,2.46,0,0,1,0-3.4,2.32,2.32,0,0,1,3.32,0A2.36,2.36,0,0,1,219.58,73.31Zm7.18-2.75a3.57,3.57,0,0,0-2.17-.51h-2.46v6.62h1.12V74.44h1.47l1.58,2.23h1.42L226,74.26a1.91,1.91,0,0,0,1.42-2.06A1.94,1.94,0,0,0,226.76,70.56Zm-2.12,2.87h-1.39V71.06h1.42a2.33,2.33,0,0,1,1.25.24,1,1,0,0,1,.35.89,1.18,1.18,0,0,1-.34,1A2.11,2.11,0,0,1,224.64,73.43ZM105.21,30.68V28.21a.35.35,0,0,0-.35-.34H93.65a.34.34,0,0,0-.34.34v2.47a.34.34,0,0,0,.34.34h11.21A.35.35,0,0,0,105.21,30.68Zm0,5.7V33.92a.35.35,0,0,0-.35-.34H93.65a.34.34,0,0,0-.34.34v2.46a.34.34,0,0,0,.34.34h11.21A.35.35,0,0,0,105.21,36.38Zm0,5.71V39.63a.35.35,0,0,0-.35-.35H93.65a.35.35,0,0,0-.34.35v2.46a.34.34,0,0,0,.34.34h11.21A.35.35,0,0,0,105.21,42.09Zm0,5.7V45.33a.35.35,0,0,0-.35-.34H93.65a.34.34,0,0,0-.34.34v2.46a.35.35,0,0,0,.34.35h11.21A.35.35,0,0,0,105.21,47.79Zm0,5.71V51a.35.35,0,0,0-.35-.34H93.65a.34.34,0,0,0-.34.34V53.5a.34.34,0,0,0,.34.34h11.21A.35.35,0,0,0,105.21,53.5Zm0,5.7V56.74a.35.35,0,0,0-.35-.34H93.65a.34.34,0,0,0-.34.34V59.2a.35.35,0,0,0,.34.35h11.21A.35.35,0,0,0,105.21,59.2Zm0,5.71V62.45a.35.35,0,0,0-.35-.34H93.65a.34.34,0,0,0-.34.34v2.46a.34.34,0,0,0,.34.34h11.21A.35.35,0,0,0,105.21,64.91Zm0,5.71V68.16a.35.35,0,0,0-.35-.35H93.65a.35.35,0,0,0-.34.35v2.46a.34.34,0,0,0,.34.34h11.21A.35.35,0,0,0,105.21,70.62Zm0,5.7V73.86a.35.35,0,0,0-.35-.34H93.65a.34.34,0,0,0-.34.34v2.46a.35.35,0,0,0,.34.35h11.21A.35.35,0,0,0,105.21,76.32ZM87.7,64.91V62.45a.34.34,0,0,0-.34-.34H44.86a.34.34,0,0,0-.34.34v2.46a.34.34,0,0,0,.34.34h42.5A.34.34,0,0,0,87.7,64.91Zm0,11.41V73.86a.34.34,0,0,0-.34-.34H44.86a.34.34,0,0,0-.34.34v2.46a.35.35,0,0,0,.34.35h42.5A.35.35,0,0,0,87.7,76.32ZM218.86,68.1l-.79-.37-.83,1.59h.8ZM217.4,68l-.76-.3-.83,1.59h.79Zm32.87,8.29V73.86a.34.34,0,0,0-.34-.34H234.77a.34.34,0,0,0-.34.34v2.46a.35.35,0,0,0,.34.35h15.16A.35.35,0,0,0,250.27,76.32Z"/><rect id="sze_vilagos_50ADC9" data-name="sze vilagos #50ADC9" class="cls-2" x="71.06" y="54.33" width="3.15" height="30.11" rx="0.34" ry="0.34" transform="translate(142.02 -3.24) rotate(90)"/></g></svg>