<svg xmlns="http://www.w3.org/2000/svg" viewBox="0 0 311.98 102.14"><defs><style>.cls-1{fill:#51adca;}.cls-2{fill:#242943;}</style></defs><title>Artboard 1aa</title><g id="tanszek"><circle id="tsz_vilagos" data-name="tsz vilagos" class="cls-1" cx="76.45" cy="40.82" r="5.02"/><path class="cls-2" d="M120.41,29.65h3.15v14.1h-3.15Zm16,0h3.15v14.1H136.4l-6.71-8.83v8.83h-3.15V29.65h3l6.91,9.08Zm15.82,0v2.77h-6.54v3h6.22v2.76h-6.22v5.53h-3.14V29.65Zm14,12.15a7.68,7.68,0,0,1-10.53,0,7.36,7.36,0,0,1,0-10.38,7.68,7.68,0,0,1,10.53,0,7.36,7.36,0,0,1,0,10.38Zm-1.07-5.18A4.61,4.61,0,0,0,164,33.4a4,4,0,0,0-5.95,0,4.88,4.88,0,0,0,0,6.43,4,4,0,0,0,5.95,0A4.56,4.56,0,0,0,165.19,36.62ZM182,34.33q0,3.39-2.68,4.38l3.57,5H179l-3.13-4.5h-2.18v4.5h-3.14V29.65h5.34c2.19,0,3.76.37,4.69,1.11A4.26,4.26,0,0,1,182,34.33ZM178.22,36a2.15,2.15,0,0,0,.59-1.67,1.78,1.78,0,0,0-.61-1.56,3.88,3.88,0,0,0-2.12-.43h-2.36v4.18H176A3.44,3.44,0,0,0,178.22,36Zm19.16-1.13-3.81,7.7H191.7l-3.8-7.7v8.87h-3.14V29.65H189l3.63,7.75,3.65-7.75h4.24v14.1h-3.15Zm16.18,8.87-1.31-3h-5.91l-1.31,3h-3.35l6.09-14.1h3l6.09,14.1Zm-4.25-9.9-1.78,4.09h3.53ZM224,32.37V43.75h-3.15V32.37h-4V29.65H228v2.72Zm5.81-2.72H233v14.1h-3.15Zm6.13,0h3.15v5.79l5.32-5.79h3.9l-5.61,6.23c.48.68,1.38,1.93,2.68,3.77l2.93,4.1h-3.67l-4.14-5.57-1.41,1.58v4H236Zm23.88,14.1-1.31-3h-5.91l-1.31,3H248l6.1-14.1h3l6.09,14.1Zm-4.25-9.9-1.78,4.09h3.53ZM126.38,52V63.37h-3.15V52h-4V49.27h11.13V52Zm15.85,11.38-1.31-3H135l-1.31,3h-3.35l6.09-14.1h3.05l6.09,14.1ZM138,53.47l-1.78,4.09h3.53Zm18.62-4.2h3.14v14.1H156.6l-6.72-8.83v8.83h-3.15V49.27h3l6.92,9.08ZM166,52.09a1.17,1.17,0,0,0-.46,1,1.12,1.12,0,0,0,.56,1,10.17,10.17,0,0,0,2.56.86,7.21,7.21,0,0,1,3.12,1.48,3.67,3.67,0,0,1,1.11,2.89,3.79,3.79,0,0,1-1.43,3.07,5.63,5.63,0,0,1-3.74,1.18,8.64,8.64,0,0,1-6-2.48l1.88-2.3a6.68,6.68,0,0,0,4.21,2,2.26,2.26,0,0,0,1.36-.37,1.21,1.21,0,0,0,.5-1,1.18,1.18,0,0,0-.53-1,6.91,6.91,0,0,0-2.07-.76,9.1,9.1,0,0,1-3.61-1.52,4.21,4.21,0,0,1,.31-6,5.77,5.77,0,0,1,3.6-1.09,8.7,8.7,0,0,1,2.82.48,7.75,7.75,0,0,1,2.46,1.37l-1.59,2.3a6.25,6.25,0,0,0-3.79-1.39A1.87,1.87,0,0,0,166,52.09Zm8.28,11.28V61.21L181.69,52h-7.14V49.27H186v2.18l-7.37,9.18h7.49v2.74Zm24.22-14.1v2.81h-7V55h6.32v2.68h-6.32v2.93h7.24v2.78H188.37V49.27Zm-3.93-1.45h-2.89l2.57-3.57,3.12,1.31Zm6.47,1.45h3.15v5.79l5.33-5.79h3.89l-5.61,6.23c.49.68,1.38,1.93,2.68,3.77l2.93,4.1h-3.67l-4.14-5.57-1.41,1.58v4h-3.15ZM122.57,70.6a2,2,0,0,1,.63,1.59,2.11,2.11,0,0,1-.61,1.6,2.61,2.61,0,0,1-1.86.59h-1.45V70h1.49A2.59,2.59,0,0,1,122.57,70.6Zm-.11,1.6c0-1-.57-1.49-1.71-1.49H120v3h.81a1.75,1.75,0,0,0,1.21-.38A1.41,1.41,0,0,0,122.46,72.2ZM127.2,70v.69h-2.32v1.16H127v.65h-2.08v1.16h2.39v.69h-3.13V70Zm3.94.38a1.44,1.44,0,0,1,.46,1.17,1.4,1.4,0,0,1-.47,1.16,2.28,2.28,0,0,1-1.42.37h-.77v1.27h-.73V70h1.49A2.24,2.24,0,0,1,131.14,70.41Zm-.52,1.8a1,1,0,0,0,.23-.69.71.71,0,0,0-.28-.63,1.58,1.58,0,0,0-.88-.19h-.75v1.74h.85A1.14,1.14,0,0,0,130.62,72.21Zm2.46,1.18-.44,1h-.78L133.77,70h.79l1.91,4.35h-.78l-.44-1Zm1.87-.68-.79-1.79-.78,1.79Zm5.59-1.26a1.26,1.26,0,0,1-.94,1.35l1.14,1.58h-.93l-1-1.46h-1v1.46h-.74V70h1.62a2.35,2.35,0,0,1,1.42.34A1.27,1.27,0,0,1,140.54,71.45Zm-1,.61a.77.77,0,0,0,.22-.62.66.66,0,0,0-.23-.58,1.49,1.49,0,0,0-.82-.16h-.93v1.55h.91A1.34,1.34,0,0,0,139.57,72.06Zm3.67-1.35v3.67h-.73V70.71h-1.32V70h3.37v.68Zm2.85,3.67h-.74V70h1.15l1.31,2.73L149.12,70h1.14v4.35h-.73V71L148,74h-.41l-1.51-3ZM154.52,70v.69H152.2v1.16h2.08v.65H152.2v1.16h2.39v.69h-3.12V70Zm4.27,0h.73v4.35h-.79l-2.46-3.17v3.17h-.74V70h.74l2.52,3.25Zm3.58.68v3.67h-.73V70.71h-1.32V70h3.37v.68Zm7.45,3.07a2.38,2.38,0,0,1-3.25,0,2.14,2.14,0,0,1-.66-1.6,2.16,2.16,0,0,1,.66-1.61,2.38,2.38,0,0,1,3.25,0,2.16,2.16,0,0,1,.66,1.61A2.14,2.14,0,0,1,169.82,73.78Zm-.53-2.72a1.53,1.53,0,0,0-2.19,0,1.58,1.58,0,0,0-.44,1.12,1.56,1.56,0,0,0,.44,1.11,1.53,1.53,0,0,0,2.19,0,1.56,1.56,0,0,0,.44-1.11A1.58,1.58,0,0,0,169.29,71.06Zm2.85-.34v1.19h1.93v.68h-1.93v1.79h-.73V70h2.9v.69Zm6.71,3a1.6,1.6,0,0,0,.65-.12,2.36,2.36,0,0,0,.57-.41l.48.49a2.21,2.21,0,0,1-1.68.76,2.23,2.23,0,0,1-1.63-.63,2.14,2.14,0,0,1-.65-1.61,2.16,2.16,0,0,1,.66-1.61,2.26,2.26,0,0,1,1.67-.65,2.21,2.21,0,0,1,1.69.74l-.47.51a2.31,2.31,0,0,0-.58-.41,1.69,1.69,0,0,0-.66-.12,1.52,1.52,0,0,0-1.1.43,1.41,1.41,0,0,0-.45,1.08,1.49,1.49,0,0,0,.45,1.11A1.4,1.4,0,0,0,178.85,73.71Zm6.23.07a2.4,2.4,0,0,1-3.26,0,2.14,2.14,0,0,1-.66-1.6,2.16,2.16,0,0,1,.66-1.61,2.4,2.4,0,0,1,3.26,0,2.16,2.16,0,0,1,.66,1.61A2.14,2.14,0,0,1,185.08,73.78Zm-.54-2.72a1.45,1.45,0,0,0-1.09-.46,1.44,1.44,0,0,0-1.09.46,1.55,1.55,0,0,0-.45,1.12,1.52,1.52,0,0,0,.45,1.11,1.44,1.44,0,0,0,1.09.46,1.45,1.45,0,0,0,1.09-.46,1.52,1.52,0,0,0,.44-1.11A1.54,1.54,0,0,0,184.54,71.06Zm2.86,3.32h-.74V70h1.15l1.31,2.73L190.43,70h1.14v4.35h-.74V71l-1.51,3h-.41l-1.51-3Zm8.31-4a1.46,1.46,0,0,1,.45,1.17,1.39,1.39,0,0,1-.46,1.16,2.3,2.3,0,0,1-1.42.37h-.77v1.27h-.74V70h1.5A2.27,2.27,0,0,1,195.71,70.41Zm-.52,1.8a1,1,0,0,0,.22-.69.68.68,0,0,0-.28-.63,1.58,1.58,0,0,0-.88-.19h-.74v1.74h.85A1.16,1.16,0,0,0,195.19,72.21ZM198,73.38a1.11,1.11,0,0,0,1.62,0,1.38,1.38,0,0,0,.3-.94V70h.73v2.44a1.92,1.92,0,0,1-.52,1.45,2,2,0,0,1-2.64,0,1.92,1.92,0,0,1-.52-1.45V70h.73v2.41A1.38,1.38,0,0,0,198,73.38Zm5.44-2.67v3.67h-.73V70.71h-1.32V70h3.37v.68Zm5.17-.68v.69h-2.32v1.16h2.08v.65h-2.08v1.16h2.39v.69h-3.13V70Zm4.48,1.42a1.26,1.26,0,0,1-.94,1.35l1.14,1.58h-.94l-1-1.46h-1v1.46h-.73V70h1.62a2.37,2.37,0,0,1,1.42.34A1.27,1.27,0,0,1,213.09,71.45Zm-1,.61a.77.77,0,0,0,.23-.62.66.66,0,0,0-.23-.58,1.51,1.51,0,0,0-.82-.16h-.94v1.55h.92A1.33,1.33,0,0,0,212.11,72.06Zm5-1.45a.91.91,0,0,0-.52.13.43.43,0,0,0-.21.39.47.47,0,0,0,.21.41,3.25,3.25,0,0,0,.87.3,2.5,2.5,0,0,1,1,.45,1.1,1.1,0,0,1,.34.86,1.18,1.18,0,0,1-.43.93,1.75,1.75,0,0,1-1.13.35,2.64,2.64,0,0,1-1.81-.7l.46-.56a2.05,2.05,0,0,0,1.37.58.85.85,0,0,0,.56-.16.46.46,0,0,0,.21-.4.44.44,0,0,0-.19-.39,2,2,0,0,0-.68-.26,4.1,4.1,0,0,1-.72-.21,1.63,1.63,0,0,1-.45-.25,1.07,1.07,0,0,1-.38-.9,1,1,0,0,1,.44-.92,1.74,1.74,0,0,1,1.08-.33,2.41,2.41,0,0,1,.83.14,2.3,2.3,0,0,1,.71.38l-.39.55a1.55,1.55,0,0,0-.53-.28A1.85,1.85,0,0,0,217.16,70.61Zm4.59,3.1a1.6,1.6,0,0,0,.65-.12,2.36,2.36,0,0,0,.57-.41l.48.49a2.21,2.21,0,0,1-1.68.76,2.23,2.23,0,0,1-1.63-.63,2.14,2.14,0,0,1-.65-1.61,2.16,2.16,0,0,1,.66-1.61,2.26,2.26,0,0,1,1.67-.65,2.21,2.21,0,0,1,1.69.74l-.47.51a2.18,2.18,0,0,0-.59-.41,1.6,1.6,0,0,0-.65-.12,1.52,1.52,0,0,0-1.1.43,1.41,1.41,0,0,0-.45,1.08,1.52,1.52,0,0,0,.44,1.11A1.44,1.44,0,0,0,221.75,73.71ZM224.34,70h.73v4.35h-.73Zm5,0v.69H227v1.16h2.09v.65H227v1.16h2.4v.69h-3.13V70Zm4.27,0h.74v4.35h-.8l-2.46-3.17v3.17h-.73V70h.73l2.52,3.25Zm3.93,3.68a1.6,1.6,0,0,0,.65-.12,2.36,2.36,0,0,0,.57-.41l.47.49a2.2,2.2,0,0,1-1.67.76,2.27,2.27,0,0,1-1.64-.63,2.18,2.18,0,0,1-.65-1.61,2.14,2.14,0,0,1,.67-1.61,2.38,2.38,0,0,1,3.36.09l-.47.51a2.18,2.18,0,0,0-.59-.41,1.6,1.6,0,0,0-.65-.12,1.53,1.53,0,0,0-1.11.43,1.44,1.44,0,0,0-.44,1.08,1.52,1.52,0,0,0,.44,1.11A1.44,1.44,0,0,0,237.53,73.71ZM243.17,70v.69h-2.32v1.16h2.08v.65h-2.08v1.16h2.39v.69h-3.12V70ZM70,65.82c1.14,3.64,4.2,4.29,7.46,4.33a26.7,26.7,0,0,0,14.21-3.77A16.87,16.87,0,0,0,99,58c3.51-8.82,1-17.54-6.73-23.33A23.6,23.6,0,0,0,74.85,30,27.65,27.65,0,0,0,58.9,37.54a18.73,18.73,0,0,0-2.67,3.31c-5.35,8-5.9,16-1.65,23.76A25.43,25.43,0,0,0,68,76.13a25.15,25.15,0,0,0,9.38,1.74,32.1,32.1,0,0,0,4.19-.29,33.54,33.54,0,0,0,14.3-5.27,1.11,1.11,0,0,0,.7-.8,1,1,0,0,0-.32-.92l0-.08a1.3,1.3,0,0,0-.86-.64,1.24,1.24,0,0,0-1,.29,11.76,11.76,0,0,1-1.25.83,31.46,31.46,0,0,1-14.73,4c-5.55,0-7.93-.6-12.13-3-7.64-4.36-11.8-12.36-10.4-20.91,1.16-7.06,5.4-12.41,12-15.87A20.53,20.53,0,0,1,80.43,33,22.08,22.08,0,0,1,90.6,37.29c5.64,4.16,7.86,9.4,6.78,16-1.44,8.82-8.53,12.28-14.33,13.57,0-.2,0-1.62,0-1.75s0-.76,0-.87c0-1.16,0-1.4,0-2V57.73c0-.95,0-1.85,0-2.77,0-1.35,0-3.07,0-4.52,0-2.45-.33-2.46-2.14-2.47h-.34c-.93,0-4-.07-8,0-2.37.05-3.15.14-3.15,2.14v1.65c0,4.32,0,4.32,0,6.54,0,.54,0,1.41,0,1.83C69.35,62.65,69.13,63.12,70,65.82ZM263.28,74V71.78a.34.34,0,0,0-.34-.34H249a.34.34,0,0,0-.34.34V74a.35.35,0,0,0,.34.35h14A.35.35,0,0,0,263.28,74Z"/></g></svg>